<svg width="154" height="179" viewBox="0 0 154 179" fill="none" xmlns="http://www.w3.org/2000/svg">
<path d="M16.982 1.9C19.534 1.9 21.514 2.461 22.922 3.583C24.33 4.683 25.034 6.245 25.034 8.269C25.034 11.195 24.088 13.461 22.196 15.067C20.304 16.651 17.708 17.443 14.408 17.443H7.511L5.993 25H4.31L8.93 1.9H16.982ZM14.408 15.925C17.268 15.925 19.468 15.287 21.008 14.011C22.548 12.735 23.318 10.865 23.318 8.401C23.318 6.795 22.757 5.563 21.635 4.705C20.535 3.847 18.951 3.418 16.883 3.418H10.316L7.808 15.925H14.408ZM28.3389 16.75C28.2949 17.234 28.2729 17.597 28.2729 17.839C28.2729 19.709 28.8119 21.15 29.8899 22.162C30.9679 23.152 32.5519 23.647 34.6419 23.647C35.8519 23.647 36.9629 23.449 37.9749 23.053C39.0089 22.635 39.8669 22.063 40.5489 21.337L41.3079 22.492C40.5379 23.328 39.5479 23.977 38.3379 24.439C37.1499 24.901 35.8739 25.132 34.5099 25.132C32.0679 25.132 30.1429 24.494 28.7349 23.218C27.3489 21.942 26.6559 20.171 26.6559 17.905C26.6559 15.969 27.0629 14.22 27.8769 12.658C28.6909 11.096 29.8129 9.875 31.2429 8.995C32.6729 8.093 34.2789 7.642 36.0609 7.642C38.3049 7.642 40.0869 8.28 41.4069 9.556C42.7269 10.832 43.3869 12.592 43.3869 14.836C43.3869 15.364 43.3209 16.002 43.1889 16.75H28.3389ZM36.0279 9.061C34.1579 9.061 32.5409 9.644 31.1769 10.81C29.8349 11.976 28.9549 13.527 28.5369 15.463H41.8029C41.8249 15.265 41.8359 14.979 41.8359 14.605C41.8359 12.867 41.3079 11.514 40.2519 10.546C39.1959 9.556 37.7879 9.061 36.0279 9.061ZM54.0016 25.132C51.6696 25.132 49.8106 24.483 48.4246 23.185C47.0606 21.887 46.3786 20.149 46.3786 17.971C46.3786 16.013 46.7966 14.253 47.6326 12.691C48.4906 11.129 49.6676 9.897 51.1636 8.995C52.6596 8.093 54.3536 7.642 56.2456 7.642C58.5776 7.642 60.4256 8.291 61.7896 9.589C63.1756 10.865 63.8686 12.603 63.8686 14.803C63.8686 16.761 63.4396 18.532 62.5816 20.116C61.7456 21.678 60.5796 22.91 59.0836 23.812C57.5876 24.692 55.8936 25.132 54.0016 25.132ZM54.1336 23.647C55.6736 23.647 57.0486 23.273 58.2586 22.525C59.4906 21.777 60.4586 20.743 61.1626 19.423C61.8666 18.081 62.2186 16.574 62.2186 14.902C62.2186 13.076 61.6796 11.657 60.6016 10.645C59.5456 9.633 58.0496 9.127 56.1136 9.127C54.5736 9.127 53.1876 9.512 51.9556 10.282C50.7456 11.03 49.7886 12.075 49.0846 13.417C48.3806 14.737 48.0286 16.222 48.0286 17.872C48.0286 19.698 48.5566 21.117 49.6126 22.129C50.6906 23.141 52.1976 23.647 54.1336 23.647ZM78.7224 7.642C80.9664 7.642 82.7704 8.291 84.1344 9.589C85.4984 10.865 86.1804 12.603 86.1804 14.803C86.1804 16.761 85.7514 18.532 84.8934 20.116C84.0574 21.678 82.8914 22.91 81.3954 23.812C79.9214 24.692 78.2604 25.132 76.4124 25.132C74.6304 25.132 73.1564 24.758 71.9904 24.01C70.8464 23.24 70.0544 22.14 69.6144 20.71L67.4694 31.402H65.8194L70.5384 7.774H72.1554L71.4954 11.107C72.3314 10.007 73.3654 9.16 74.5974 8.566C75.8294 7.95 77.2044 7.642 78.7224 7.642ZM76.4454 23.647C77.9854 23.647 79.3604 23.273 80.5704 22.525C81.8024 21.755 82.7594 20.71 83.4414 19.39C84.1454 18.07 84.4974 16.574 84.4974 14.902C84.4974 13.076 83.9584 11.657 82.8804 10.645C81.8244 9.633 80.3284 9.127 78.3924 9.127C76.8524 9.127 75.4664 9.501 74.2344 10.249C73.0244 10.997 72.0674 12.042 71.3634 13.384C70.6594 14.704 70.3074 16.2 70.3074 17.872C70.3074 19.698 70.8464 21.117 71.9244 22.129C73.0024 23.141 74.5094 23.647 76.4454 23.647ZM94.259 0.513999H95.909L91.025 25H89.375L94.259 0.513999ZM99.3985 16.75C99.3545 17.234 99.3325 17.597 99.3325 17.839C99.3325 19.709 99.8715 21.15 100.949 22.162C102.027 23.152 103.611 23.647 105.701 23.647C106.911 23.647 108.022 23.449 109.034 23.053C110.068 22.635 110.926 22.063 111.608 21.337L112.367 22.492C111.597 23.328 110.607 23.977 109.397 24.439C108.209 24.901 106.933 25.132 105.569 25.132C103.127 25.132 101.202 24.494 99.7945 23.218C98.4085 21.942 97.7155 20.171 97.7155 17.905C97.7155 15.969 98.1225 14.22 98.9365 12.658C99.7505 11.096 100.872 9.875 102.302 8.995C103.732 8.093 105.338 7.642 107.12 7.642C109.364 7.642 111.146 8.28 112.466 9.556C113.786 10.832 114.446 12.592 114.446 14.836C114.446 15.364 114.38 16.002 114.248 16.75H99.3985ZM107.087 9.061C105.217 9.061 103.6 9.644 102.236 10.81C100.894 11.976 100.014 13.527 99.5965 15.463H112.862C112.884 15.265 112.895 14.979 112.895 14.605C112.895 12.867 112.367 11.514 111.311 10.546C110.255 9.556 108.847 9.061 107.087 9.061ZM20.018 69.499H6.587L2.33 76H0.449L15.695 52.9H17.378L23.384 76H21.668L20.018 69.499ZM19.655 68.08L16.256 54.682L7.511 68.08H19.655ZM31.3396 62.404C32.1096 61.15 33.0886 60.215 34.2766 59.599C35.4866 58.961 36.9496 58.642 38.6656 58.642L38.3686 60.259L37.8406 60.226C35.8826 60.226 34.2766 60.809 33.0226 61.975C31.7686 63.141 30.9106 64.868 30.4486 67.156L28.6666 76H27.0166L30.4486 58.774H32.0656L31.3396 62.404ZM40.9717 67.75C40.9277 68.234 40.9057 68.597 40.9057 68.839C40.9057 70.709 41.4447 72.15 42.5227 73.162C43.6007 74.152 45.1847 74.647 47.2747 74.647C48.4847 74.647 49.5957 74.449 50.6077 74.053C51.6417 73.635 52.4997 73.063 53.1817 72.337L53.9407 73.492C53.1707 74.328 52.1807 74.977 50.9707 75.439C49.7827 75.901 48.5067 76.132 47.1427 76.132C44.7007 76.132 42.7757 75.494 41.3677 74.218C39.9817 72.942 39.2887 71.171 39.2887 68.905C39.2887 66.969 39.6957 65.22 40.5097 63.658C41.3237 62.096 42.4457 60.875 43.8757 59.995C45.3057 59.093 46.9117 58.642 48.6937 58.642C50.9377 58.642 52.7197 59.28 54.0397 60.556C55.3597 61.832 56.0197 63.592 56.0197 65.836C56.0197 66.364 55.9537 67.002 55.8217 67.75H40.9717ZM48.6607 60.061C46.7907 60.061 45.1737 60.644 43.8097 61.81C42.4677 62.976 41.5877 64.527 41.1697 66.463H54.4357C54.4577 66.265 54.4687 65.979 54.4687 65.605C54.4687 63.867 53.9407 62.514 52.8847 61.546C51.8287 60.556 50.4207 60.061 48.6607 60.061ZM10.745 127.165C9.073 127.165 7.478 126.879 5.96 126.307C4.442 125.713 3.32 124.976 2.594 124.096L3.485 122.809C4.189 123.645 5.223 124.338 6.587 124.888C7.973 125.416 9.403 125.68 10.877 125.68C13.099 125.68 14.87 125.229 16.19 124.327C17.532 123.425 18.203 122.171 18.203 120.565C18.203 119.729 17.95 119.047 17.444 118.519C16.96 117.991 16.344 117.573 15.596 117.265C14.87 116.957 13.88 116.627 12.626 116.275C11.174 115.835 10.008 115.428 9.128 115.054C8.248 114.68 7.5 114.13 6.884 113.404C6.29 112.678 5.993 111.732 5.993 110.566C5.993 109.158 6.378 107.937 7.148 106.903C7.918 105.869 8.974 105.088 10.316 104.56C11.658 104.01 13.198 103.735 14.936 103.735C16.278 103.735 17.554 103.911 18.764 104.263C19.996 104.615 21.041 105.11 21.899 105.748L21.107 107.134C20.293 106.518 19.347 106.045 18.269 105.715C17.191 105.385 16.058 105.22 14.87 105.22C12.714 105.22 10.976 105.682 9.656 106.606C8.336 107.53 7.676 108.795 7.676 110.401C7.676 111.259 7.929 111.963 8.435 112.513C8.941 113.063 9.557 113.492 10.283 113.8C11.031 114.108 12.054 114.449 13.352 114.823C14.804 115.263 15.959 115.67 16.817 116.044C17.675 116.396 18.401 116.924 18.995 117.628C19.589 118.332 19.886 119.245 19.886 120.367C19.886 122.523 19.039 124.195 17.345 125.383C15.651 126.571 13.451 127.165 10.745 127.165ZM42.6354 109.774L39.2034 127H37.6194L38.2794 123.634C37.4434 124.734 36.3984 125.592 35.1444 126.208C33.9124 126.824 32.5374 127.132 31.0194 127.132C28.7754 127.132 26.9714 126.494 25.6074 125.218C24.2654 123.92 23.5944 122.171 23.5944 119.971C23.5944 118.013 24.0124 116.253 24.8484 114.691C25.6844 113.107 26.8394 111.875 28.3134 110.995C29.8094 110.093 31.4814 109.642 33.3294 109.642C35.1114 109.642 36.5854 110.027 37.7514 110.797C38.9174 111.567 39.7094 112.656 40.1274 114.064L40.9854 109.774H42.6354ZM31.3494 125.647C32.8894 125.647 34.2644 125.273 35.4744 124.525C36.7064 123.777 37.6744 122.743 38.3784 121.423C39.0824 120.081 39.4344 118.574 39.4344 116.902C39.4344 115.076 38.8954 113.657 37.8174 112.645C36.7614 111.633 35.2654 111.127 33.3294 111.127C31.7894 111.127 30.4034 111.512 29.1714 112.282C27.9614 113.03 27.0044 114.075 26.3004 115.417C25.5964 116.737 25.2444 118.222 25.2444 119.872C25.2444 121.698 25.7724 123.117 26.8284 124.129C27.9064 125.141 29.4134 125.647 31.3494 125.647ZM63.4189 109.774L50.5489 129.541C49.5809 131.037 48.6569 132.071 47.7769 132.643C46.9189 133.237 45.8959 133.534 44.7079 133.534C43.9159 133.534 43.1679 133.402 42.4639 133.138C41.7599 132.874 41.2099 132.5 40.8139 132.016L41.7709 130.795C42.5409 131.653 43.5749 132.082 44.8729 132.082C45.6649 132.082 46.3799 131.862 47.0179 131.422C47.6779 130.982 48.3709 130.212 49.0969 129.112L50.5489 126.934L46.1929 109.774H47.8759L51.7369 125.185L61.7029 109.774H63.4189ZM66.9935 109.774H68.6435L65.2115 127H63.5615L66.9935 109.774ZM68.8415 105.583C68.4895 105.583 68.1925 105.462 67.9505 105.22C67.7085 104.978 67.5875 104.692 67.5875 104.362C67.5875 103.966 67.7195 103.625 67.9835 103.339C68.2695 103.053 68.6215 102.91 69.0395 102.91C69.3915 102.91 69.6885 103.031 69.9305 103.273C70.1945 103.515 70.3265 103.801 70.3265 104.131C70.3265 104.549 70.1835 104.901 69.8975 105.187C69.6115 105.451 69.2595 105.583 68.8415 105.583ZM83.683 109.642C85.641 109.642 87.148 110.137 88.204 111.127C89.26 112.095 89.788 113.437 89.788 115.153C89.788 115.747 89.722 116.374 89.59 117.034L87.61 127H85.96L87.94 117.034C88.05 116.528 88.105 115.978 88.105 115.384C88.105 114.02 87.687 112.975 86.851 112.249C86.037 111.501 84.838 111.127 83.254 111.127C81.274 111.127 79.624 111.688 78.304 112.81C76.984 113.91 76.115 115.516 75.697 117.628L73.816 127H72.166L75.598 109.774H77.215L76.555 113.041C77.369 111.897 78.381 111.05 79.591 110.5C80.823 109.928 82.187 109.642 83.683 109.642ZM113.41 109.774L110.341 125.152C109.769 128.078 108.691 130.201 107.107 131.521C105.523 132.863 103.334 133.534 100.54 133.534C98.9563 133.534 97.5263 133.292 96.2503 132.808C94.9743 132.346 93.9183 131.686 93.0823 130.828L94.1383 129.607C94.8423 130.377 95.7553 130.971 96.8773 131.389C97.9993 131.829 99.2643 132.049 100.672 132.049C102.96 132.049 104.753 131.51 106.051 130.432C107.349 129.354 108.218 127.682 108.658 125.416L109.186 122.842C108.328 123.964 107.261 124.833 105.985 125.449C104.709 126.065 103.29 126.373 101.728 126.373C99.4183 126.373 97.5813 125.757 96.2173 124.525C94.8753 123.293 94.2043 121.621 94.2043 119.509C94.2043 117.661 94.6223 115.989 95.4583 114.493C96.2943 112.975 97.4603 111.787 98.9563 110.929C100.452 110.071 102.135 109.642 104.005 109.642C105.809 109.642 107.316 110.027 108.526 110.797C109.736 111.567 110.55 112.689 110.968 114.163L111.826 109.774H113.41ZM102.025 124.888C103.587 124.888 104.984 124.536 106.216 123.832C107.448 123.106 108.416 122.116 109.12 120.862C109.824 119.586 110.176 118.156 110.176 116.572C110.176 114.856 109.626 113.525 108.526 112.579C107.448 111.611 105.941 111.127 104.005 111.127C102.443 111.127 101.046 111.49 99.8143 112.216C98.5823 112.92 97.6143 113.91 96.9103 115.186C96.2063 116.44 95.8543 117.859 95.8543 119.443C95.8543 121.159 96.3933 122.501 97.4713 123.469C98.5713 124.415 100.089 124.888 102.025 124.888ZM20.018 171.499H6.587L2.33 178H0.449L15.695 154.9H17.378L23.384 178H21.668L20.018 171.499ZM19.655 170.08L16.256 156.682L7.511 170.08H19.655ZM38.6326 160.642C40.8766 160.642 42.6806 161.291 44.0446 162.589C45.4086 163.865 46.0906 165.603 46.0906 167.803C46.0906 169.761 45.6616 171.532 44.8036 173.116C43.9676 174.678 42.8016 175.91 41.3056 176.812C39.8316 177.692 38.1706 178.132 36.3226 178.132C34.5186 178.132 33.0336 177.747 31.8676 176.977C30.7016 176.185 29.9096 175.063 29.4916 173.611L28.6336 178H27.0166L31.9006 153.514H33.5506L31.4716 164.008C32.3076 162.93 33.3306 162.105 34.5406 161.533C35.7726 160.939 37.1366 160.642 38.6326 160.642ZM36.3556 176.647C37.8956 176.647 39.2706 176.273 40.4806 175.525C41.7126 174.755 42.6696 173.71 43.3516 172.39C44.0556 171.07 44.4076 169.574 44.4076 167.902C44.4076 166.076 43.8686 164.657 42.7906 163.645C41.7346 162.633 40.2386 162.127 38.3026 162.127C36.7626 162.127 35.3766 162.501 34.1446 163.249C32.9346 163.997 31.9776 165.042 31.2736 166.384C30.5696 167.704 30.2176 169.2 30.2176 170.872C30.2176 172.698 30.7566 174.117 31.8346 175.129C32.9126 176.141 34.4196 176.647 36.3556 176.647ZM56.6441 178.132C54.3121 178.132 52.4531 177.483 51.0671 176.185C49.7031 174.887 49.0211 173.149 49.0211 170.971C49.0211 169.013 49.4391 167.253 50.2751 165.691C51.1331 164.129 52.3101 162.897 53.8061 161.995C55.3021 161.093 56.9961 160.642 58.8881 160.642C61.2201 160.642 63.0681 161.291 64.4321 162.589C65.8181 163.865 66.5111 165.603 66.5111 167.803C66.5111 169.761 66.0821 171.532 65.2241 173.116C64.3881 174.678 63.2221 175.91 61.7261 176.812C60.2301 177.692 58.5361 178.132 56.6441 178.132ZM56.7761 176.647C58.3161 176.647 59.6911 176.273 60.9011 175.525C62.1331 174.777 63.1011 173.743 63.8051 172.423C64.5091 171.081 64.8611 169.574 64.8611 167.902C64.8611 166.076 64.3221 164.657 63.2441 163.645C62.1881 162.633 60.6921 162.127 58.7561 162.127C57.2161 162.127 55.8301 162.512 54.5981 163.282C53.3881 164.03 52.4311 165.075 51.7271 166.417C51.0231 167.737 50.6711 169.222 50.6711 170.872C50.6711 172.698 51.1991 174.117 52.2551 175.129C53.3331 176.141 54.8401 176.647 56.7761 176.647ZM88.328 160.774L84.896 178H83.279L83.939 174.733C82.333 176.999 79.979 178.132 76.877 178.132C74.941 178.132 73.445 177.648 72.389 176.68C71.355 175.69 70.838 174.337 70.838 172.621C70.838 172.027 70.904 171.4 71.036 170.74L73.016 160.774H74.666L72.686 170.74C72.576 171.224 72.521 171.774 72.521 172.39C72.521 173.754 72.917 174.81 73.709 175.558C74.523 176.284 75.722 176.647 77.306 176.647C79.286 176.647 80.925 176.097 82.223 174.997C83.521 173.875 84.379 172.258 84.797 170.146L86.678 160.774H88.328ZM94.8272 173.017C94.7392 173.435 94.6952 173.842 94.6952 174.238C94.6952 175.888 95.5752 176.713 97.3352 176.713C98.3912 176.713 99.3262 176.394 100.14 175.756L100.635 176.977C99.6892 177.747 98.4572 178.132 96.9392 178.132C95.7072 178.132 94.7392 177.813 94.0352 177.175C93.3532 176.515 93.0122 175.613 93.0122 174.469C93.0122 174.007 93.0562 173.567 93.1442 173.149L95.3552 162.193H92.1542L92.4182 160.774H95.6192L96.3782 157.012H98.0282L97.2692 160.774H102.747L102.483 162.193H97.0052L94.8272 173.017ZM123.612 178.165C121.038 178.165 119.036 177.516 117.606 176.218C116.198 174.92 115.494 173.105 115.494 170.773C115.494 170.047 115.582 169.189 115.758 168.199L118.431 154.9H120.114L117.474 168.166C117.298 168.958 117.21 169.794 117.21 170.674C117.21 172.61 117.771 174.084 118.893 175.096C120.015 176.108 121.621 176.614 123.711 176.614C126.131 176.614 128.067 175.932 129.519 174.568C130.993 173.182 132.016 171.048 132.588 168.166L135.228 154.9H136.911L134.238 168.265C132.94 174.865 129.398 178.165 123.612 178.165ZM144.335 178.132C142.993 178.132 141.706 177.934 140.474 177.538C139.264 177.12 138.318 176.592 137.636 175.954L138.527 174.667C139.165 175.283 140.012 175.778 141.068 176.152C142.146 176.504 143.279 176.68 144.467 176.68C146.249 176.68 147.624 176.372 148.592 175.756C149.582 175.118 150.077 174.238 150.077 173.116C150.077 172.478 149.879 171.972 149.483 171.598C149.087 171.224 148.603 170.949 148.031 170.773C147.459 170.575 146.667 170.366 145.655 170.146C144.467 169.904 143.499 169.651 142.751 169.387C142.025 169.123 141.409 168.716 140.903 168.166C140.397 167.594 140.144 166.824 140.144 165.856C140.144 164.272 140.793 163.007 142.091 162.061C143.411 161.115 145.16 160.642 147.338 160.642C148.438 160.642 149.505 160.796 150.539 161.104C151.573 161.39 152.398 161.797 153.014 162.325L152.255 163.612C151.617 163.106 150.847 162.732 149.945 162.49C149.065 162.226 148.152 162.094 147.206 162.094C145.534 162.094 144.203 162.424 143.213 163.084C142.245 163.744 141.761 164.613 141.761 165.691C141.761 166.351 141.959 166.879 142.355 167.275C142.751 167.649 143.246 167.935 143.84 168.133C144.456 168.331 145.27 168.54 146.282 168.76C147.47 169.002 148.416 169.255 149.12 169.519C149.846 169.761 150.462 170.157 150.968 170.707C151.474 171.257 151.727 172.005 151.727 172.951C151.727 174.557 151.056 175.822 149.714 176.746C148.372 177.67 146.579 178.132 144.335 178.132Z" fill="white"/>
</svg>
